<svg viewBox="0 0 1658 987" xmlns="http://www.w3.org/2000/svg"><mask id="a" fill="#fff"><path fill-rule="evenodd" clip-rule="evenodd" d="M121.43 153.937c0-85.052 68.948-154 154-154h1132c85.05 0 154 68.948 154 154v84h73c11.05 0 20 8.954 20 20v471c0 11.046-8.95 20-20 20h-73v84c0 85.052-68.95 154-154 154h-1132c-85.052 0-154-68.948-154-154v-84h-98c-11.046 0-20-8.954-20-20v-471c0-11.046 8.954-20 20-20h98v-84Z"/></mask><path fill-rule="evenodd" clip-rule="evenodd" d="M121.43 153.937c0-85.052 68.948-154 154-154h1132c85.05 0 154 68.948 154 154v84h73c11.05 0 20 8.954 20 20v471c0 11.046-8.95 20-20 20h-73v84c0 85.052-68.95 154-154 154h-1132c-85.052 0-154-68.948-154-154v-84h-98c-11.046 0-20-8.954-20-20v-471c0-11.046 8.954-20 20-20h98v-84Z" fill="#F7F0E4"/><path d="M1561.43 237.937h-20v20h20v-20Zm0 511v-20h-20v20h20Zm-1440 0h20v-20h-20v20Zm0-511v20h20v-20h-20Zm154-258c-96.098 0-174 77.902-174 174h40c0-74.006 59.994-134 134-134v-40Zm1132 0h-1132v40h1132v-40Zm174 174c0-96.098-77.9-174-174-174v40c74.01 0 134 59.994 134 134h40Zm0 84v-84h-40v84h40Zm-20 20h73v-40h-73v40Zm73 0 .02.001c.01 0 .01 0 0-.001l-.01-.003c-.01-.002-.01-.004-.02-.005 0-.003-.01-.005 0-.004 0 .002 0 .006.01.012s.01.011.01.014v-.008c0-.004-.01-.008-.01-.013v-.017.024h40c0-22.091-17.91-40-40-40v40Zm0 0v471h40v-471h-40Zm0 471v.024-.017c0-.005.01-.009.01-.013v-.008c0 .003 0 .008-.01.014s-.01.01-.01.012c-.01.001 0-.001 0-.004.01-.001.01-.003.02-.005l.01-.003c.01-.001.01-.001 0-.001l-.02.001v40c22.09 0 40-17.909 40-40h-40Zm0 0h-73v40h73v-40Zm-53 104v-84h-40v84h40Zm-174 174c96.1 0 174-77.902 174-174h-40c0 74.006-59.99 134-134 134v40Zm-1132 0h1132v-40h-1132v40Zm-174-174c0 96.098 77.902 174 174 174v-40c-74.006 0-134-59.994-134-134h-40Zm0-84v84h40v-84h-40Zm-78 20h98v-40h-98v40Zm-40-40c0 22.091 17.909 40 40 40v-40l-.024-.001.003.001.014.003.013.005.008.004-.014-.012-.012-.014.004.008.005.013.003.014.001.003-.001-.024h-40Zm0-471v471h40v-471h-40Zm40-40c-22.091 0-40 17.909-40 40h40l.001-.024-.001.003-.003.014-.005.013-.004.008.012-.014.014-.012-.008.004-.013.005-.014.003-.003.001.024-.001v-40Zm98 0h-98v40h98v-40Zm-20-64v84h40v-84h-40Z" fill="#ECD8BA" mask="url(#a)"/><rect x="466.43" y="400.937" width="61" height="47" rx="3" fill="#D5B290"/><rect x="284.43" y="399.937" width="61" height="47" rx="3" fill="#D5B290"/><rect x="632.36" y="399.937" width="61" height="47" rx="3" fill="#D5B290"/><rect x="829.716" y="399.937" width="61" height="47" rx="3" fill="#D5B290"/><rect x="1056.885" y="397.021" width="61" height="47" rx="3" fill="#D5B290"/><path stroke="#F5E6CE" stroke-width="15" stroke-linecap="round" stroke-dasharray="30 30" d="m137.877 289.49-2.894 409m1410.897-408-2.9 409"/><text style="fill:#333;font-family:&quot;Courier New&quot;;font-size:36.5px;white-space:pre" x="287.496" y="254.108"><tspan x="353.437" y="432.188" style="font-size:36.5px;word-spacing:0">years</tspan></text><text style="fill:#333;font-family:&quot;Courier New&quot;;font-size:36.5px;white-space:pre" x="538.772" y="434.799">days</text><text style="fill:#333;font-family:Courier New;font-size:36.5px;white-space:pre" x="363.196" y="461.631"><tspan x="707.139" y="433.494" style="font-size:36.5px;word-spacing:0">hours</tspan></text><text style="fill:#333;font-family:Courier New;font-size:36.5px;white-space:pre" x="240.069" y="316.757"><tspan x="897.254" y="433.494" style="font-size:36.5px;word-spacing:0">minutes</tspan></text><text style="fill:#333;font-family:Courier New;font-size:36.5px;white-space:pre" x="1125.607" y="429.578">seconds until open</text><text style="fill:#333;font-family:&quot;Courier New&quot;;font-size:36.5px;text-anchor:middle;white-space:pre" x="313.587" y="435.874">', timeLeft.year, '</text><text style="fill:#333;font-family:&quot;Courier New&quot;;font-size:36.5px;text-anchor:middle;white-space:pre" x="496.311" y="436.527">', timeLeft.day, '</text><text style="fill:#333;font-family:&quot;Courier New&quot;;font-size:36.5px;text-anchor:middle;white-space:pre" x="662.068" y="436.527">', timeLeft.hour, '</text><text style="fill:#333;font-family:&quot;Courier New&quot;;font-size:36.5px;text-anchor:middle;white-space:pre" x="860.488" y="436.527">', timeLeft.minute, '</text><text style="fill:#333;font-family:&quot;Courier New&quot;;font-size:36.5px;text-anchor:middle;white-space:pre" x="1086.232" y="433.916">', timeLeft.second, '</text><text style="fill:#cbb798;font-family:Courier New;font-size:93px;font-weight:700;white-space:pre;text-anchor:middle" x="829.492" y="173.478">Toymakers Present</text><text style="fill:#333;font-family:Courier New;font-size:97px;font-weight:700;text-anchor:middle;white-space:pre" x="829.492" y="288.176">TIME CAPSULE TICKET</text><text style="fill:#333;font-family:Courier New;font-size:46.2px;white-space:pre" x="272.86" y="619.999">', contractName, ' #', buriedTokenId, '</text><text style="fill:#cbb798;font-family:Courier New;font-size:46.2px;white-space:pre" x="232.359" y="142.627"><tspan x="272.343" y="669.015" style="font-size:46.2px;word-spacing:0">was buried in 2023 by</tspan></text><text style="fill:#333;font-family:Courier New;font-size:46.2px;white-space:pre" x="273.658" y="718.03">', Strings.toHexString(uint256(uint160(burier)), 20),'</text></svg>